<svg xmlns="http://www.w3.org/2000/svg" viewBox="0 0 63.6 56"><defs><style>.cls-1{fill:#222222;}</style></defs><title>アセット 54</title><g id="レイヤー_2" data-name="レイヤー 2"><g id="step1_devices"><path class="cls-1" d="M57.29,56H45.91a6.27,6.27,0,0,1-6.31-6.21V22.21A6.27,6.27,0,0,1,45.91,16H57.29a6.27,6.27,0,0,1,6.31,6.21V49.79A6.27,6.27,0,0,1,57.29,56ZM59.6,22.21A2.27,2.27,0,0,0,57.29,20H45.91a2.27,2.27,0,0,0-2.31,2.21V49.79A2.27,2.27,0,0,0,45.91,52H57.29a2.27,2.27,0,0,0,2.31-2.21ZM53.6,28h-4a2,2,0,1,1,0-4h4a2,2,0,0,1,0,4Zm0,20h-4V44h4ZM58,12a2,2,0,0,1-2-2V4H8V36H24a2,2,0,0,1,2,2h8a2,2,0,0,1,0,4H24a2,2,0,0,1-2-2H4v4H34a2,2,0,0,1,0,4H4a4,4,0,0,1-4-4V38a2,2,0,0,1,2-2H4V4A4,4,0,0,1,8,0H56a4,4,0,0,1,4,4v6A2,2,0,0,1,58,12Z"/></g></g></svg>