<svg xmlns="http://www.w3.org/2000/svg" viewBox="0 0 45.51 45.51"><defs><style>.cls-1{fill:#ffffff;}</style></defs><title>アセット 2</title><g id="レイヤー_2" data-name="レイヤー 2"><g id="レイヤー_2のコピー_2" data-name="レイヤー 2のコピー 2"><path class="cls-1" d="M32.57,29.22V21s0,0,0,0,0,0,0-.05a9.83,9.83,0,0,0-6.94-9.38,6.13,6.13,0,1,0-5.75,0,9.82,9.82,0,0,0-6.94,9.38v8.32a1.5,1.5,0,0,0,1.5,1.5h2.37l1.68,13.47A1.51,1.51,0,0,0,20,45.51h5.54A1.5,1.5,0,0,0,27,44.19L28.7,30.72h2.37A1.5,1.5,0,0,0,32.57,29.22ZM22.75,3a3.12,3.12,0,1,1-3.12,3.12A3.12,3.12,0,0,1,22.75,3Zm6.82,24.72H27.18l-.18,0-.1,0-.17.07-.09.05-.16.1-.08.07a1.31,1.31,0,0,0-.12.11l-.09.1-.09.13-.06.12a.91.91,0,0,0-.07.14l0,.13,0,.16s0,0,0,.05L24.2,42.51H21.3L19.62,29s0,0,0-.06a.94.94,0,0,0,0-.16.65.65,0,0,0,0-.13l-.06-.14a.75.75,0,0,0-.07-.12l-.09-.12-.08-.11-.12-.11L19,28a.57.57,0,0,0-.13-.08.6.6,0,0,0-.11-.06.94.94,0,0,0-.15-.06l-.13,0-.15,0h-2.4V21s0,0,0,0,0,0,0-.05a6.82,6.82,0,0,1,13.63,0v6.82Z"/><path class="cls-1" d="M45.51,24.23c0-5-2.34-8.7-6-9.92a6.13,6.13,0,1,0-4.25.53,1.55,1.55,0,0,0-.1.52,1.5,1.5,0,0,0,1.5,1.5c4.35,0,5.9,3.81,5.9,7.37v4.42H41l-.13,0-.15.05-.13,0-.12.07-.13.08-.11.08a.52.52,0,0,0-.11.1l-.09.11-.09.11s0,.08-.07.13l-.07.13,0,.13a1,1,0,0,0-.05.16v0l-1.64,9.83h-3l-.74-5.16a1.5,1.5,0,0,0-3,.42l.92,6.46a1.51,1.51,0,0,0,1.49,1.28h5.55a1.49,1.49,0,0,0,1.47-1.25l1.64-9.83H44a1.51,1.51,0,0,0,1.5-1.5V24.32s0,0,0,0S45.51,24.25,45.51,24.23Zm-12-15.34A3.12,3.12,0,1,1,36.61,12,3.12,3.12,0,0,1,33.49,8.89Z"/><path class="cls-1" d="M12.8,33.3a1.5,1.5,0,0,0-1.7,1.27l-.74,5.16h-3L5.75,29.9a0,0,0,0,0,0,0,.94.94,0,0,0,0-.16.65.65,0,0,0,0-.13l-.07-.14-.06-.12-.1-.12-.08-.1L5.23,29l-.1-.08L5,28.84l-.12-.07-.13,0-.15-.05H4.47l-.17,0H3V24.23c0-3.56,1.55-7.37,5.89-7.37a1.5,1.5,0,0,0,1.5-1.5,1.55,1.55,0,0,0-.1-.52,6.11,6.11,0,1,0-4.24-.53c-3.71,1.22-6,4.9-6,9.92v5.92a1.5,1.5,0,0,0,1.5,1.5H3l1.64,9.83a1.5,1.5,0,0,0,1.48,1.25h5.54a1.51,1.51,0,0,0,1.49-1.28L14.07,35A1.49,1.49,0,0,0,12.8,33.3ZM8.89,5.77A3.12,3.12,0,1,1,5.77,8.89,3.12,3.12,0,0,1,8.89,5.77Z"/></g></g></svg>