<?xml version="1.0" encoding="utf-8"?>
<!-- Generator: Adobe Illustrator 24.0.1, SVG Export Plug-In . SVG Version: 6.00 Build 0)  -->
<svg version="1.1" id="レイヤー_1" xmlns="http://www.w3.org/2000/svg" xmlns:xlink="http://www.w3.org/1999/xlink" x="0px"
	 y="0px" width="60px" height="60px" viewBox="0 0 60 60" style="enable-background:new 0 0 60 60;" xml:space="preserve">
<style type="text/css">
	.st0{fill:#00BFB3;}
	.st1{fill:#FFFFFF;}
</style>
<g>
	<path class="st0" d="M60,30c0,16.5-13.5,30-30,30l0,0C13.5,60,0,46.5,0,30l0,0C0,13.5,13.5,0,30,0l0,0C46.5,0,60,13.5,60,30L60,30z
		"/>
</g>
<path class="st1" d="M38.413,40.135c3.016-2.505,4.669-6.132,4.669-10.273c0-7.53-5.653-13.209-13.149-13.209
	c-7.514,0-13.18,5.679-13.18,13.209c0,7.53,5.666,13.209,13.18,13.209c1.272,0,3.172-0.174,5.168-0.979l2.459,2.987l0.15,0.182
	h0.236h3.637h1.061l-0.675-0.818L38.413,40.135z M27.485,32.822l0.673,0.818l4.367,5.309c-0.829,0.234-1.698,0.353-2.592,0.353
	c-5.176,0-9.23-4.146-9.23-9.439s4.054-9.439,9.23-9.439c5.158,0,9.199,4.146,9.199,9.439c0,1.387-0.32,4.784-3.193,7.254
	l-3.374-4.111l-0.15-0.183h-0.237h-3.635H27.485z"/>
</svg>
