<?xml version="1.0" encoding="utf-8"?>
<!-- Generator: Adobe Illustrator 23.0.1, SVG Export Plug-In . SVG Version: 6.00 Build 0)  -->
<svg version="1.1" id="レイヤー_2" xmlns="http://www.w3.org/2000/svg" xmlns:xlink="http://www.w3.org/1999/xlink" x="0px"
	 y="0px" width="512px" height="512px" viewBox="0 0 512 512" style="enable-background:new 0 0 512 512;" xml:space="preserve">
<style type="text/css">
	.st0{fill:#FFFFFF;}
</style>
<g id="information_gathering_3_">
	<path class="st0" d="M456.451,500H47.839C28.078,500,12,483.922,12,464.16v-223.58c0-19.762,16.077-35.839,35.839-35.839h92.516
		c1.17,0,2.302,0.41,3.201,1.159l44.865,37.39h198.644c19.762,0,35.839,16.077,35.839,35.838v177.322
		c0,18.499,15.05,33.549,33.548,33.549C474.95,490,490,474.95,490,456.451v-223.58h10v223.58C500,480.464,480.464,500,456.451,500z
		 M47.839,214.742C33.591,214.742,22,226.333,22,240.581v223.58C22,478.408,33.591,490,47.839,490h380.875
		c-9.651-7.994-15.812-20.066-15.812-33.549V279.129c0-14.247-11.591-25.838-25.839-25.838H186.61c-1.17,0-2.303-0.41-3.201-1.159
		l-44.865-37.39H47.839z"/>
	<g>
		<path class="st0" d="M412.904,453.742v-10l38.547-0.001V165.684L361.99,83.677H191.613v123.355h-10V78.677c0-2.761,2.239-5,5-5
			h177.323c1.251,0,2.456,0.469,3.379,1.314l92.516,84.807c1.033,0.947,1.621,2.284,1.621,3.686v285.257c0,2.762-2.238,5-5,5
			L412.904,453.742z"/>
		<path class="st0" d="M456.451,168.484h-77.097c-7.008,0-12.709-5.702-12.709-12.709v-15.419c0-2.761,2.238-5,5-5s5,2.239,5,5
			v15.419c0,1.494,1.215,2.709,2.709,2.709h77.097c2.762,0,5,2.239,5,5S459.213,168.484,456.451,168.484z"/>
		<path class="st0" d="M317.678,168.484h-69.387c-2.761,0-5-2.239-5-5s2.239-5,5-5h69.387c2.762,0,5,2.239,5,5
			S320.439,168.484,317.678,168.484z"/>
		<path class="st0" d="M371.646,207.032H248.291c-2.761,0-5-2.239-5-5s2.239-5,5-5h123.355c2.762,0,5,2.239,5,5
			S374.407,207.032,371.646,207.032z"/>
	</g>
	<path class="st0" d="M60.548,176.193h-10v-51.258c0-2.761,2.239-5,5-5h136.064v10H60.548V176.193z"/>
	<path class="st0" d="M91.387,83.677h-10V17c0-2.761,2.239-5,5-5h262.129c2.762,0,5,2.239,5,5v28.129h-10V22H91.387V83.677z"/>
</g>
</svg>
