<svg id="B_" data-name="B!" xmlns="http://www.w3.org/2000/svg" width="135.423" height="112.836" viewBox="0 0 135.423 112.836">
  <path id="パス_2" data-name="パス 2" d="M195.31,196.814q-6.751-7.546-18.765-8.439c7.148-1.936,12.311-4.766,15.588-8.588S197,170.951,197,164.547a27.3,27.3,0,0,0-3.276-13.453,24.225,24.225,0,0,0-9.531-9.233,40.888,40.888,0,0,0-13.006-4.269c-5.063-.844-13.949-1.191-26.658-1.191H113.6V249.186h31.87q19.211,0,27.7-1.291a45.128,45.128,0,0,0,14.2-4.418,26.062,26.062,0,0,0,10.872-10.623,32.342,32.342,0,0,0,3.822-15.935C202.062,208.529,199.828,201.828,195.31,196.814ZM142.194,161.37h6.6q11.467,0,15.389,2.581c2.631,1.737,3.922,4.716,3.922,8.936s-1.44,6.95-4.22,8.638-7.992,2.482-15.587,2.482h-6.106V161.37ZM168.4,226.053c-3.028,1.837-8.191,2.73-15.439,2.73H142.194V204.211h11.219c7.446,0,12.609.943,15.339,2.83s4.17,5.163,4.17,9.928-1.489,7.3-4.567,9.134Z" transform="translate(-113.6 -136.4)" fill="#fff"/>
  <path id="パス_3" data-name="パス 3" d="M343.1,306.1a14.3,14.3,0,1,0,14.3,14.3,14.3,14.3,0,0,0-14.3-14.3Z" transform="translate(-221.971 -221.858)" fill="#fff"/>
  <rect id="長方形_2" data-name="長方形 2" width="24.821" height="75.217" transform="translate(108.715)" fill="#fff"/>
</svg>
