<?xml version="1.0" encoding="utf-8"?>
<!-- Generator: Adobe Illustrator 23.0.1, SVG Export Plug-In . SVG Version: 6.00 Build 0)  -->
<svg version="1.1" id="レイヤー_3" xmlns="http://www.w3.org/2000/svg" xmlns:xlink="http://www.w3.org/1999/xlink" x="0px"
	 y="0px" width="512px" height="512px" viewBox="0 0 512 512" style="enable-background:new 0 0 512 512;" xml:space="preserve">
<style type="text/css">
	.st0{fill:#FFFFFF;}
</style>
<g id="branding-business_card">
	<g>
		<path class="st0" d="M306.81,85.807c-1.449,0-2.886-0.626-3.875-1.836l-21.474-26.277c-0.076-0.094-0.15-0.191-0.22-0.291
			c-11.049-15.738-32.831-19.563-48.556-8.529c-8.903,6.251-14.307,16.085-14.827,26.98c-0.131,2.757-2.452,4.888-5.232,4.756
			c-2.758-0.131-4.888-2.474-4.756-5.232c0.667-14.004,7.618-26.648,19.07-34.688c20.186-14.167,48.125-9.305,62.376,10.814
			l21.362,26.14c1.747,2.139,1.43,5.289-0.708,7.036C309.042,85.437,307.922,85.807,306.81,85.807z"/>
		<path class="st0" d="M428.982,384.483c-31.396,0.003-85.52-17.379-89.568-18.693c-21.479-5.7-34.39-27.772-28.793-49.278
			c2.704-10.451,9.323-19.227,18.636-24.703c9.311-5.477,20.202-7.001,30.665-4.286c0.045,0.012,0.09,0.024,0.135,0.037
			l71.526,20.702c2.653,0.768,4.181,3.54,3.413,6.192s-3.539,4.183-6.192,3.413l-71.457-20.682
			c-7.86-2.022-16.031-0.869-23.021,3.243c-7.009,4.121-11.989,10.725-14.025,18.595c-4.225,16.23,5.552,32.885,21.79,37.131
			c0.096,0.024,0.191,0.053,0.285,0.083c20.442,6.666,77.702,22.742,96.898,17.156c24.369-7.092,36.726-22.55,36.726-45.944
			c0-34.192-15.256-49.448-27.515-61.705c-7.256-7.258-29.077-28.975-29.077-28.975l7.055-7.088c0,0,21.833,21.73,29.094,28.991
			C468.404,271.52,486,289.114,486,327.449c0,27.575-15.603,47.302-43.932,55.546C438.498,384.033,434.031,384.483,428.982,384.483z
			"/>
		<path class="st0" d="M383.573,431.449c-6.537,0-13.165-1.545-19.337-4.804l-134.218-62.28c-0.084-0.038-0.167-0.08-0.248-0.123
			c-9.765-5.206-16.916-13.912-20.136-24.513c-3.219-10.596-2.124-21.807,3.083-31.567c10.762-20.143,35.928-27.799,56.102-17.067
			l18.639,10.34c2.415,1.34,3.286,4.383,1.946,6.798c-1.339,2.414-4.383,3.288-6.798,1.946l-18.561-10.298
			c-15.236-8.102-34.34-2.295-42.506,12.991c-3.95,7.402-4.78,15.909-2.337,23.951c2.431,8,7.81,14.576,15.156,18.531
			l134.208,62.276c0.083,0.038,0.164,0.079,0.245,0.121c15.327,8.158,34.414,2.365,42.55-12.914c1.297-2.438,4.326-3.36,6.763-2.064
			c2.438,1.298,3.361,4.326,2.064,6.764C412.759,423.491,398.404,431.449,383.573,431.449z"/>
		<path class="st0" d="M317.068,462.758c-8.107,0-16.273-2.64-23.097-8.065l-122.749-82.97c-0.116-0.078-0.229-0.161-0.337-0.249
			c-15.897-12.811-18.398-36.186-5.575-52.106c8.401-10.392,21.811-15.475,35-13.272c0.292,0.049,0.58,0.123,0.858,0.223
			l5.706,2.038c2.601,0.929,3.956,3.79,3.027,6.391c-0.929,2.602-3.791,3.953-6.39,3.027l-5.269-1.882
			c-9.502-1.436-19.105,2.28-25.149,9.756c-9.317,11.568-7.553,28.534,3.911,37.913l122.734,82.959
			c0.115,0.078,0.227,0.16,0.335,0.247c11.638,9.365,28.701,7.558,38.033-4.03c3.255-4.031,5.273-8.854,5.841-13.953
			c0.03-0.269,0.082-0.534,0.154-0.794c0.226-0.892,2.034-9.347-8.276-14.501c-2.47-1.235-3.471-4.238-2.236-6.709
			c1.235-2.471,4.239-3.469,6.709-2.236c14.063,7.032,15.044,19.645,13.545,25.719c-0.834,6.86-3.579,13.337-7.952,18.752
			C338.607,458.058,327.89,462.757,317.068,462.758z"/>
		<path class="st0" d="M263.669,477.468c-6.642,0-12.978-1.959-18.42-5.779l-85.956-61.136c-0.312-0.222-0.597-0.479-0.851-0.766
			c-6.208-7.031-9.023-16.148-7.927-25.67c1.028-8.935,5.57-17.063,12.149-21.744c2.25-1.601,5.372-1.074,6.973,1.176
			c1.601,2.25,1.075,5.371-1.175,6.973c-4.308,3.064-7.303,8.574-8.012,14.738c-0.746,6.482,1.075,12.672,5.132,17.495
			l85.438,60.767c5.423,3.806,12.263,4.901,19.231,3.068c6.976-1.837,12.952-6.433,15.597-11.995
			c1.186-2.492,4.167-3.553,6.663-2.368c2.493,1.187,3.554,4.169,2.368,6.663c-3.934,8.272-12.188,14.766-22.082,17.37
			C269.729,477.068,266.667,477.468,263.669,477.468z"/>
	</g>
	<g>
		<path class="st0" d="M372.129,172.903H248.742c-2.761,0-5-2.239-5-5s2.239-5,5-5h123.387c2.762,0,5,2.239,5,5
			S374.891,172.903,372.129,172.903z"/>
		<path class="st0" d="M306.807,230.968h-58.065c-2.761,0-5-2.239-5-5s2.239-5,5-5h58.065c2.762,0,5,2.239,5,5
			S309.568,230.968,306.807,230.968z"/>
		<path class="st0" d="M123.097,347.097H45.516c-10.761,0-19.516-8.755-19.516-19.516V95.323c0-10.761,8.755-19.516,19.516-19.516
			h362.903c10.762,0,19.517,8.755,19.517,19.516v215.484h-10V95.323c0-5.247-4.27-9.516-9.517-9.516H45.516
			c-5.247,0-9.516,4.269-9.516,9.516v232.258c0,5.247,4.269,9.516,9.516,9.516h77.581V347.097z"/>
		<g>
			<path class="st0" d="M139.871,267.258c-0.919,0-1.839-0.253-2.65-0.76l-58.064-36.29c-1.462-0.914-2.35-2.516-2.35-4.24v-58.064
				c0-1.724,0.888-3.326,2.35-4.24l58.064-36.291c1.621-1.014,3.679-1.014,5.3,0l58.064,36.291c1.462,0.914,2.35,2.516,2.35,4.24
				v58.064c0,1.724-0.888,3.326-2.35,4.24l-58.064,36.29C141.71,267.005,140.791,267.258,139.871,267.258z M86.807,223.197
				l53.064,33.165l53.064-33.165v-52.522l-53.064-33.165l-53.064,33.165V223.197z"/>
			<g>
				<path class="st0" d="M139.871,201.936c-0.766,0-1.532-0.176-2.236-0.528l-29.032-14.516c-2.47-1.235-3.471-4.238-2.236-6.708
					c1.234-2.471,4.238-3.472,6.708-2.236l26.796,13.398l26.796-13.398c2.467-1.235,5.473-0.234,6.708,2.236
					c1.235,2.47,0.234,5.473-2.236,6.708l-29.032,14.516C141.403,201.76,140.637,201.936,139.871,201.936z"/>
				<path class="st0" d="M139.871,230.968c-2.761,0-5-2.239-5-5v-29.032c0-2.761,2.239-5,5-5s5,2.239,5,5v29.032
					C144.871,228.729,142.632,230.968,139.871,230.968z"/>
			</g>
		</g>
	</g>
</g>
</svg>
