<?xml version="1.0" encoding="utf-8"?>
<!-- Generator: Adobe Illustrator 23.1.0, SVG Export Plug-In . SVG Version: 6.00 Build 0)  -->
<svg version="1.1" id="レイヤー_1" xmlns="http://www.w3.org/2000/svg" xmlns:xlink="http://www.w3.org/1999/xlink" x="0px"
	 y="0px" viewBox="0 0 23.8 23.9" style="enable-background:new 0 0 23.8 23.9;" xml:space="preserve">
<style type="text/css">
	.st0{fill-rule:evenodd;clip-rule:evenodd;fill:#FFB81C;}
</style>
<path class="st0" d="M19.2,23.9c-0.3,0-0.6-0.1-0.8-0.3L12,19.2l-0.1,0l-6.3,4.4c-0.6,0.4-1.4,0.3-1.8-0.2c-0.2-0.2-0.3-0.6-0.2-1.2
	l1.9-6.8c0-0.1,0-0.2-0.1-0.3l-4.9-5c-0.4-0.4-0.6-1-0.4-1.4c0.2-0.5,0.6-0.8,1.2-0.9l6.5-0.6C7.9,7.1,8,7,8.1,7l2.6-6.1
	C11,0.3,11.4,0,11.9,0c0.5,0,1,0.3,1.2,0.9L15.8,7c0,0.1,0.2,0.2,0.2,0.2l6.5,0.6c0.6,0.1,1,0.4,1.2,0.9c0.2,0.5,0,1-0.4,1.4l-4.9,5
	c0,0.1-0.1,0.2-0.1,0.3l1.9,6.8c0.2,0.6,0,1-0.2,1.2C19.9,23.7,19.6,23.9,19.2,23.9z"/>
</svg>
