<svg xmlns="http://www.w3.org/2000/svg" viewBox="0 0 59.85 63.45"><defs><style>.cls-1{fill:#222222;}</style></defs><title>アセット 56</title><g id="レイヤー_2" data-name="レイヤー 2"><g id="step3_edit"><path class="cls-1" d="M58.11,25.92A.53.53,0,0,0,58,26s0,.07-.06.09L55.2,28.82a.75.75,0,0,1-.09.15s-.11.06-.15.1L36.3,47.73l0,0c-.07.06-.17.1-.24.16a2,2,0,0,1-.44.27h0l-9,3.36a2.07,2.07,0,0,1-.7.13H11a2,2,0,0,1,0-4H24.56L27.44,40v0a2.61,2.61,0,0,1,.17-.28,2.94,2.94,0,0,1,.26-.39v0L49.54,17.66l.1-.07s0-.06.06-.08a6.06,6.06,0,0,1,8.41,0,6,6,0,0,1,0,8.41ZM29.35,46.27l4.44-1.67L50.85,27.53l-2.77-2.76L31,41.84ZM55.29,20.33a2,2,0,0,0-2.76,0l-.1.07-.07.09L50.9,21.94l2.77,2.77,1.46-1.46a.53.53,0,0,1,.1-.06.53.53,0,0,1,.06-.1,2,2,0,0,0,0-2.76ZM50.88,12a2,2,0,0,1-2-2l0-6.06h-29v14A2,2,0,0,1,18,20H3.86V59.52l45-.06V43.7a2,2,0,1,1,4,0V59.46a4,4,0,0,1-4,4H4a4,4,0,0,1-4-4V18c0-.05,0-.08,0-.13a2.29,2.29,0,0,1,.11-.52,1.07,1.07,0,0,1,.07-.19,1.74,1.74,0,0,1,.38-.56v0L16.54.59h0a2,2,0,0,1,.57-.39l.17-.06A2.07,2.07,0,0,1,17.84,0L18,0H48.88a4,4,0,0,1,4,4v6A2,2,0,0,1,50.88,12ZM16,6.81,6.81,16H16Z"/></g></g></svg>