<svg xmlns="http://www.w3.org/2000/svg" viewBox="0 0 63.32 53"><defs><style>.cls-1,.cls-2{fill:none;stroke:#222;stroke-linecap:round;stroke-linejoin:round;}.cls-1{stroke-width:4px;}.cls-2{stroke-width:3px;}</style></defs><title>アセット 55</title><g id="レイヤー_2" data-name="レイヤー 2"><g id="step2_browser_user"><line class="cls-1" x1="2" y1="14.32" x2="61.32" y2="14.32"/><polygon class="cls-1" points="8.16 8.21 8.16 8.21 8.16 8.21 8.16 8.21 8.16 8.21"/><polygon class="cls-1" points="13.03 8.21 13.03 8.21 13.03 8.21 13.03 8.21 13.03 8.21"/><polygon class="cls-1" points="17.89 8.21 17.89 8.21 17.89 8.21 17.89 8.21 17.89 8.21"/><rect class="cls-1" x="2" y="2" width="59.32" height="49"/><line class="cls-2" x1="26.5" y1="24.92" x2="26.5" y2="29.23"/><line class="cls-2" x1="36.82" y1="29.23" x2="36.81" y2="24.92"/><path class="cls-2" d="M36.82,24.5c-.37-2-2.9-3.45-5.16-3.45h0c-2.26,0-4.79,1.49-5.16,3.45"/><path class="cls-2" d="M36.82,29.23s.16,5.24-2.52,7.29"/><path class="cls-2" d="M26.5,29.23s-.1,5.18,2.58,7.32"/><polyline class="cls-2" points="43.27 40.39 43.27 40.39 34.3 36.52"/><line class="cls-2" x1="29.08" y1="36.55" x2="20.05" y2="40.39"/><path class="cls-2" d="M20.05,40.39V43a1.29,1.29,0,0,0,1.29,1.28H42A1.29,1.29,0,0,0,43.26,43V40.39"/></g></g></svg>