<svg xmlns="http://www.w3.org/2000/svg" viewBox="0 0 63.49 59.92"><defs><style>.cls-1{fill:#00bfb3;}</style></defs><g id="レイヤー_2" data-name="レイヤー 2"><g id="検索職種"><path class="cls-1" d="M55.05,13.29H8.44A8.44,8.44,0,0,0,0,21.73v4.63l25.71,5.76v-.47a2.81,2.81,0,0,1,2.81-2.82H34.8a2.81,2.81,0,0,1,2.81,2.82v.47l25.88-5.81V21.73A8.44,8.44,0,0,0,55.05,13.29Z"/><path  class="cls-1" d="M37.61,41.89a2.81,2.81,0,0,1-2.81,2.82H28.52a2.81,2.81,0,0,1-2.81-2.82V36.31L0,30.55V51.48a8.44,8.44,0,0,0,8.44,8.44H55.05a8.44,8.44,0,0,0,8.44-8.44v-21L37.61,36.31Z"/><rect  class="cls-1" x="28.69" y="31.81" width="5.95" height="9.92"/><path  class="cls-1" d="M22.37,6.25a.88.88,0,0,1,.26-.63.86.86,0,0,1,.63-.26h17a.86.86,0,0,1,.63.26.88.88,0,0,1,.26.63v4.46h5.35V6.25A6.25,6.25,0,0,0,40.23,0h-17A6.25,6.25,0,0,0,17,6.25v4.46h5.36V6.25Z"/></g></g></svg>