<svg xmlns="http://www.w3.org/2000/svg" viewBox="0 0 45.13 36.89"><defs><style>.cls-1{fill:#ffffff;}</style></defs><title>アセット 3</title><g id="レイヤー_2" data-name="レイヤー 2"><g id="レイヤー_2のコピー" data-name="レイヤー 2のコピー"><path class="cls-1" d="M42.22,0H2.9A2.89,2.89,0,0,0,0,2.87V27.6a2.89,2.89,0,0,0,2.9,2.88H21.06v3.41H11.33a1.5,1.5,0,1,0,0,3H33.8a1.5,1.5,0,0,0,0-3H24.06V30.48H42.22a2.9,2.9,0,0,0,2.91-2.88V2.87A2.9,2.9,0,0,0,42.22,0Zm-.09,27.48H3V3H42.13Z"/><path class="cls-1" d="M8.37,24.48H22.11a2.38,2.38,0,0,0,2.37-2.37V20.73a.8.8,0,0,0,0-.15,1.55,1.55,0,0,0,0-.21l-.1-.17a.83.83,0,0,0-.11-.15.79.79,0,0,0-.18-.14l-.11-.08-4.8-2.27a8.1,8.1,0,0,0,.79-3.67V9.74s0,0,0-.07,0-.06,0-.09C19.53,7.43,17.19,6,15.24,6S11,7.43,10.59,9.58a.27.27,0,0,0,0,.09s0,.05,0,.07v4.15a7.9,7.9,0,0,0,.78,3.67L6.57,19.83a.44.44,0,0,0-.11.08.85.85,0,0,0-.19.14l-.1.15a.75.75,0,0,0-.1.17.79.79,0,0,0-.05.22c0,.05,0,.09,0,.14v1.38A2.38,2.38,0,0,0,8.37,24.48ZM15.24,8A2.83,2.83,0,0,1,17.9,9.86v4s0,0,0,0a5.74,5.74,0,0,1-1,3.44s0,.07-.05.1a.71.71,0,0,0-.07.09s0,.06,0,.09a1.05,1.05,0,0,0-.05.19,1.15,1.15,0,0,0,0,.19,1.13,1.13,0,0,0,0,.18.76.76,0,0,0,.06.18l.1.17a1.58,1.58,0,0,0,.12.15s0,.05.07.07a.45.45,0,0,0,.12.06s0,0,.06.05l5.23,2.47v.75a.38.38,0,0,1-.37.37H8.37A.38.38,0,0,1,8,22.11v-.75l5.23-2.47s0,0,.07-.05l.12-.06.06-.07.13-.15.1-.17a.78.78,0,0,0,.05-.18.57.57,0,0,0,0-.18.95.95,0,0,0-.06-.38s0-.06,0-.09,0-.06-.06-.09,0-.07-.05-.1a5.68,5.68,0,0,1-1-3.44s0,0,0,0v-4A2.83,2.83,0,0,1,15.24,8Z"/><path class="cls-1" d="M27.14,9.83h11a1,1,0,0,0,0-2h-11a1,1,0,0,0,0,2Z"/><path class="cls-1" d="M27.14,15.53h7.33a1,1,0,0,0,0-2H27.14a1,1,0,0,0,0,2Z"/></g></g></svg>