<?xml version="1.0" encoding="utf-8"?>
<!-- Generator: Adobe Illustrator 23.0.3, SVG Export Plug-In . SVG Version: 6.00 Build 0)  -->
<svg version="1.1" id="レイヤー_1" xmlns="http://www.w3.org/2000/svg" xmlns:xlink="http://www.w3.org/1999/xlink" x="0px"
	 y="0px" viewBox="0 0 23.8 23.9" style="enable-background:new 0 0 23.8 23.9;" xml:space="preserve">
<style type="text/css">
	.st0{fill:#00bfb3;}
</style>
<g>
	<path class="st0" d="M19.4,1.8H15V1.2C15,0.5,14.4,0,13.8,0h-3.3C9.9,0,9.3,0.5,9.3,1.2v0.6H4.9c-0.9,0-1.6,0.7-1.6,1.6v0.4
		c0,0.5,0.2,0.9,0.7,0.9h16.2c0.5,0,0.7-0.4,0.7-0.9V3.3C21,2.5,20.2,1.8,19.4,1.8z"/>
	<path class="st0" d="M19.3,6H5C4.4,6,4.1,6.3,4.1,6.9L5,22.3c0,0.6,1,1.6,1.6,1.6h11.2c0.6,0,1.6-1,1.6-1.6l0.9-15.4
		C20.2,6.3,19.9,6,19.3,6z M8.5,21.6c-0.4,0-0.8-0.4-0.8-0.9L7.2,9.1c0-0.5,0.3-0.9,0.7-1c0.4,0,0.8,0.4,0.8,0.9l0.5,11.6
		C9.2,21.2,8.9,21.6,8.5,21.6z M12.9,20.9c0,0.4-0.3,0.7-0.7,0.7c-0.4,0-0.7-0.3-0.7-0.7v-12c0-0.4,0.3-0.7,0.7-0.7
		c0.4,0,0.7,0.3,0.7,0.7V20.9z M16.6,20.8c0,0.5-0.4,0.9-0.8,0.9c-0.4,0-0.7-0.5-0.7-1L15.6,9c0-0.5,0.4-0.9,0.8-0.9
		c0.4,0,0.7,0.5,0.7,1L16.6,20.8z"/>
</g>
</svg>
