<?xml version="1.0" encoding="utf-8"?>
<!-- Generator: Adobe Illustrator 23.0.2, SVG Export Plug-In . SVG Version: 6.00 Build 0)  -->
<svg version="1.1" id="_x32_" xmlns="http://www.w3.org/2000/svg" xmlns:xlink="http://www.w3.org/1999/xlink" x="0px" y="0px"
	 viewBox="0 0 512 512" style="enable-background:new 0 0 512 512;" xml:space="preserve">
<style type="text/css">
	.st0{fill:#fff;}
</style>
<g>
	<path class="st0" d="M256,0C114.5,0,0,114.5,0,256c0,141.4,114.5,255.9,256,256c15.3,0,30.3-1.4,44.8-4
		c-12.6-7.8-23.8-17.8-33-29.4c-3.9,0.2-7.8,0.3-11.8,0.3c-61.7-0.1-117.3-24.9-157.7-65.3C57.9,373.3,33,317.6,33,256
		c0-61.7,24.9-117.3,65.2-157.7C138.7,57.9,194.3,33,256,33c61.6,0,117.2,24.9,157.7,65.2c40.4,40.5,65.2,96,65.3,157.7
		c0,14.6-1.5,28.9-4.1,42.7c9.6,15,16.6,30.7,21,46.9c10.5-27.9,16.2-58.1,16.2-89.6C511.9,114.5,397.4,0,256,0z"/>
	<g>
		<polygon class="st0" points="456.5,301.6 412.3,301.6 374.3,371 336.3,301.6 292.1,301.6 336.7,383 298.7,383 298.7,413.9 
			351,413.9 351,434 298.7,434 298.7,464.9 351,464.9 351,504.4 355.3,504.4 393.3,504.4 397.7,504.4 397.7,464.9 450,464.9 
			450,434 397.7,434 397.7,413.9 450,413.9 450,383 412,383 		"/>
	</g>
	<path class="st0" d="M285.5,269.6l-4.2-144.7c0-8-6.5-14.5-14.5-14.5c-8,0-14.5,6.5-14.5,14.5l-3.7,126.4l-92.8,2
		c-9,0-16.3,7.3-16.3,16.4c0,9,7.3,16.4,16.3,16.4l110.9,2.3C277.1,288.3,285.5,279.9,285.5,269.6z"/>
</g>
</svg>
