<?xml version="1.0" encoding="utf-8"?>
<!-- Generator: Adobe Illustrator 23.0.1, SVG Export Plug-In . SVG Version: 6.00 Build 0)  -->
<svg version="1.1" id="_x32_" xmlns="http://www.w3.org/2000/svg" xmlns:xlink="http://www.w3.org/1999/xlink" x="0px" y="0px"
	 width="512px" height="512px" viewBox="0 0 512 512" style="enable-background:new 0 0 512 512;" xml:space="preserve">
<style type="text/css">
	.st0{fill:#FFFFFF;}
</style>
<g id="benefits">
	<g>
		<path class="st0" d="M106.328,485.518c-1.7,0-3.357-0.867-4.294-2.431c-1.419-2.369-0.649-5.44,1.719-6.859l30.845-18.481
			c0.778-0.466,1.047-1.171,1.138-1.549c0.091-0.379,0.172-1.129-0.309-1.898L68.713,347.558c-0.484-0.775-1.2-1.029-1.583-1.112
			c-0.382-0.082-1.14-0.146-1.9,0.361l-38.458,25.612c-2.299,1.53-5.402,0.908-6.933-1.39s-0.908-5.402,1.39-6.933l38.458-25.613
			c2.832-1.888,6.224-2.532,9.551-1.813c3.327,0.718,6.152,2.702,7.955,5.588l66.714,106.741c1.791,2.866,2.342,6.253,1.551,9.538
			c-0.791,3.285-2.822,6.051-5.721,7.787l-30.845,18.481C108.088,485.288,107.202,485.518,106.328,485.518z"/>
		<path class="st0" d="M79.867,360.964c-1.616,0-3.201-0.782-4.165-2.228c-1.532-2.298-0.911-5.402,1.387-6.934l82.503-55.002
			c8.225-5.483,17.796-8.382,27.681-8.382h121.114c19.264,0,34.936,15.672,34.936,34.936s-15.672,34.936-34.936,34.936h-89.806
			c-2.761,0-5-2.238-5-5s2.239-5,5-5h89.806c13.75,0,24.936-11.187,24.936-24.936s-11.186-24.936-24.936-24.936H187.272
			c-7.903,0-15.557,2.317-22.134,6.702l-82.503,55.002C81.783,360.691,80.82,360.963,79.867,360.964z"/>
		<path class="st0" d="M137.158,452.628c-1.626,0-3.221-0.793-4.182-2.253c-1.518-2.307-0.878-5.407,1.428-6.925l29.772-19.59
			c8.167-5.374,17.653-8.215,27.431-8.215h116.541c9.416,0,18.586-1.863,27.256-5.539l132.177-56.026
			c12.74-5.277,18.795-19.893,13.533-32.596c-5.262-12.701-19.871-18.756-32.581-13.495c-0.043,0.019-0.086,0.035-0.13,0.052
			l-130.749,49.92c-2.581,0.986-5.47-0.308-6.454-2.888c-0.985-2.579,0.308-5.47,2.888-6.454l130.687-49.896
			c17.783-7.322,38.216,1.161,45.578,18.936c7.372,17.796-1.109,38.272-18.907,45.645l-132.139,56.011
			c-9.91,4.201-20.394,6.332-31.158,6.332H191.607c-7.819,0-15.403,2.271-21.934,6.568l-29.772,19.59
			C139.054,452.361,138.101,452.628,137.158,452.628z"/>
	</g>
	<g>
		<path class="st0" d="M136.261,261.001c-1.94,0-3.786-1.136-4.598-3.031L86.759,153.195c-0.58-1.352-0.534-2.89,0.124-4.206
			c0.968-1.935,24.665-47.482,108.793-55.13c8.261-0.751,16.528-1.434,24.523-2.094c72.925-6.021,135.905-11.22,181.716-63.574
			c1.149-1.314,2.897-1.937,4.623-1.633c1.721,0.3,3.159,1.477,3.796,3.104l67.354,172.129c0.664,1.697,0.352,3.622-0.815,5.022
			c-1.58,1.897-39.495,46.538-108.063,54.156c-2.753,0.305-5.217-1.674-5.521-4.418s1.673-5.216,4.418-5.521
			c56.239-6.249,91.193-39.646,99.542-48.478L403.94,40.766c-48.049,49.828-113.636,55.246-182.918,60.966
			c-7.975,0.658-16.22,1.339-24.44,2.086c-69.015,6.274-94.331,39.444-99.637,47.756l43.91,102.456
			c1.088,2.538-0.088,5.478-2.626,6.565C137.586,260.871,136.917,261.001,136.261,261.001z"/>
		<path class="st0" d="M196.129,253.516c-1.313,0-2.588-0.518-3.536-1.464c-0.131-0.131-13.719-13.503-26.4-13.503
			c-2,0-3.808-1.192-4.596-3.03l-22.452-52.387c-0.805-1.879-0.386-4.06,1.06-5.505c0.131-0.131,13.503-13.719,13.503-26.4
			c0-2.232,1.48-4.194,3.626-4.808l52.387-14.967c2.657-0.758,5.423,0.779,6.181,3.434c0.759,2.655-0.779,5.422-3.434,6.181
			l-49.024,14.006c-1.567,11.67-9.736,22.357-13.837,27.085l19.969,46.595c12.307,1.464,23.6,10.396,28.076,14.359l34.914-6.983
			c2.705-0.543,5.342,1.214,5.883,3.922c0.542,2.708-1.214,5.342-3.922,5.883l-37.419,7.484
			C196.783,253.484,196.455,253.516,196.129,253.516z"/>
		<path class="st0" d="M360.774,223.581c-2.762,0-5-2.239-5-5s2.238-5,5-5c9.87,0,28.935-7.959,38.95-12.648
			c-4.146-17.708,3.79-30.668,7.802-35.833l-12.998-38.992c-14.68-1.488-23.986-11.748-28.528-20.081
			c-8.203,4.599-25.241,12.78-42.646,12.78c-2.762,0-5-2.239-5-5s2.238-5,5-5c20.622,0,41.921-13.989,42.133-14.13
			c1.298-0.861,2.925-1.07,4.396-0.564c1.472,0.507,2.626,1.669,3.118,3.146c0.26,0.76,6.718,19.033,25.192,19.033
			c2.152,0,4.063,1.377,4.743,3.419l14.968,44.903c0.6,1.796,0.132,3.777-1.208,5.117c-0.502,0.513-12.642,13.204-6.275,32.303
			c0.787,2.36-0.281,4.94-2.507,6.053C406.648,208.718,376.739,223.581,360.774,223.581z"/>
		<path class="st0" d="M286.45,238.57c-5.37,0-10.874-1.108-16.366-3.326c-15.367-6.204-28.378-20.178-35.697-38.338
			c-12.833-31.841-3.612-66.53,20.553-77.328c9.886-4.418,20.909-4.412,31.88,0.017c15.366,6.204,28.377,20.177,35.697,38.338l0,0
			c12.832,31.841,3.612,66.53-20.553,77.328C297.027,237.466,291.806,238.57,286.45,238.57z M270.461,126.286
			c-3.978,0-7.827,0.807-11.441,2.422c-19.315,8.631-26.204,37.547-15.357,64.46c6.216,15.424,17.493,27.687,30.165,32.803
			c8.393,3.388,16.711,3.441,24.057,0.159c19.314-8.63,26.204-37.547,15.357-64.459c-6.217-15.424-17.494-27.688-30.166-32.803
			C278.813,127.146,274.568,126.286,270.461,126.286z"/>
	</g>
</g>
</svg>
