<svg xmlns="http://www.w3.org/2000/svg" viewBox="0 0 56.61 37.96"><defs><style>.cls-1{fill:#fff;}</style></defs><g id="レイヤー_2" data-name="レイヤー 2"><g id="レイヤー_1-2" data-name="レイヤー 1"><path class="cls-1" d="M47.44,31.6,36.27,25.47a17.16,17.16,0,0,0,3.59-10.09V8.44a1,1,0,0,0,0-.24C39,3.29,33.7,0,29.24,0h-.1C24.7.05,19.45,3.33,18.65,8.2a1,1,0,0,0,0,.24v7a17.16,17.16,0,0,0,3.59,10.08L11,31.6a1.5,1.5,0,0,0-.78,1.31v2.37A2.68,2.68,0,0,0,12.92,38H45.56a2.68,2.68,0,0,0,2.66-2.68V32.91A1.5,1.5,0,0,0,47.44,31.6ZM45.22,35h-32V33.8L25.4,27.13a.33.33,0,0,0,.1-.06l.12-.09a1.14,1.14,0,0,0,.16-.15.34.34,0,0,0,.06-.06h0s.06-.1.1-.15l.06-.1,0-.12a.94.94,0,0,0,.06-.15s0,0,0-.08a1.38,1.38,0,0,0,0-.2.65.65,0,0,0,0-.14.75.75,0,0,0,0-.15.69.69,0,0,0,0-.13l0-.15,0-.09a1.08,1.08,0,0,0-.08-.19h0L25.94,25a.86.86,0,0,0-.1-.16l-.12-.12-.08-.08c-3.95-3.25-4-9.21-4-9.27V8.58C22.24,5.38,26.12,3,29.24,3h.08c3.11,0,6.93,2.41,7.53,5.58v6.8c0,.06-.07,6-4,9.28l-.06.07a.86.86,0,0,0-.14.13,1.4,1.4,0,0,0-.1.16l-.06.08h0a1.19,1.19,0,0,0-.08.2l0,.07,0,.18a.36.36,0,0,0,0,.11.76.76,0,0,0,0,.15.66.66,0,0,1,0,.14c0,.06,0,.12,0,.18s0,.07,0,.1,0,.09,0,.14l.06.13a.47.47,0,0,0,.06.09.86.86,0,0,0,.1.16h0a.6.6,0,0,0,.08.08l.12.12.15.11.09.05,0,0h0L45.22,33.8Z"/><path class="cls-1" d="M13.09,10.7A1.27,1.27,0,1,0,15,9L8.59,2.1h0a1.18,1.18,0,0,0-.32-.23L8.16,1.8a1.26,1.26,0,0,0-.51-.11,1.18,1.18,0,0,0-.5.11.47.47,0,0,0-.09.06,1,1,0,0,0-.32.23s0,0,0,0L.34,9a1.27,1.27,0,0,0,.07,1.8,1.24,1.24,0,0,0,.87.34,1.27,1.27,0,0,0,.93-.41L6.38,6.22V25.53a1.28,1.28,0,1,0,2.55,0V6.22Z"/><path class="cls-1" d="M56.27,6.28l-5-5.41h0a1.25,1.25,0,0,0-1.83,0h0l-5,5.41A1.28,1.28,0,1,0,46.21,8L49,5V19.53a1.28,1.28,0,1,0,2.55,0V5L54.4,8a1.27,1.27,0,0,0,.93.41,1.31,1.31,0,0,0,.87-.34A1.28,1.28,0,0,0,56.27,6.28Z"/></g></g></svg>