<svg xmlns="http://www.w3.org/2000/svg" viewBox="0 0 61.75 63.36"><defs><style>.cls-1{fill:#00bfb3;}</style></defs><g id="レイヤー_2" data-name="レイヤー 2"><g id="検索スキル"><path class="cls-1" d="M60.28,53,25.61,19a13.77,13.77,0,0,0,1.21-2.76,4.17,4.17,0,0,1,.2-.94c.06-.19.11-.37.16-.56A13.71,13.71,0,0,0,19.92,0l-.18,0L18.62.29a.79.79,0,0,0-.49.38.76.76,0,0,0-.08.61l2.39,8.59a.79.79,0,0,1-.3.86L14.7,14.68a.78.78,0,0,1-.57.14L8.35,14a.78.78,0,0,1-.66-.57L5.16,4.38a.78.78,0,0,0-1-.56l-1.46.35a.68.68,0,0,0-.21.1A13.67,13.67,0,0,0,0,12.16,13.68,13.68,0,0,0,15.73,25.6q.9-.12,1.65-.18a12.55,12.55,0,0,0,1.42-.49c5.81,5.89,34.37,35.18,34.37,35.18A5,5,0,0,0,60.28,53ZM58.5,58.33a2.51,2.51,0,1,1,0-3.55A2.51,2.51,0,0,1,58.5,58.33Z"/><polygon class="cls-1" points="49.47 16.87 55.11 15.44 60.53 5.97 57.9 3.48 55.28 0.98 46.1 6.89 44.97 12.59 35.23 22.86 39.66 27.21 49.47 16.87"/><path class="cls-1" d="M21.23,34.7c-1.12,1-2.71-.24-4.79,2L2.69,51.15a7.23,7.23,0,0,0,10.49,10l13.75-14.5c2.09-2.19.8-3.71,1.71-4.88a3,3,0,0,1,.53-.54l-7.25-7.41A2,2,0,0,1,21.23,34.7Z"/></g></g></svg>