<svg xmlns="http://www.w3.org/2000/svg" viewBox="0 0 63.34 60.75"><defs><style>.cls-1{fill:#222222;}</style></defs><title>アセット 58</title><g id="レイヤー_2" data-name="レイヤー 2"><g id="step5_handshake"><path class="cls-1" d="M62.52,9.41c-.09-.06-2.07-1.49-7.94-5.41l-.65-.43C50.34,1.16,48.33,0,41.93,0H38.12c-3.47,0-4.91,1.49-8.4,5.1l-.13.13a2.08,2.08,0,0,0-.5-.07A36.16,36.16,0,0,0,14.64,7.81,13.21,13.21,0,0,1,9.74,9H2a2,2,0,0,0-2,2V40.7a2,2,0,0,0,2,2H4.58c1.57,0,3.94,2.69,5,4.5l.08.12,7.47,10.62a6.37,6.37,0,0,0,5.24,2.81,7.52,7.52,0,0,0,3.67-1,8.9,8.9,0,0,0,2.14-1.64,6.62,6.62,0,0,0,4.12,1.39,8.41,8.41,0,0,0,3.73-.93,6,6,0,0,0,2.22-1.88,7.2,7.2,0,0,0,3,1.46,6.53,6.53,0,0,0,1.24.13,6.88,6.88,0,0,0,3.77-1.2,6,6,0,0,0,2.55-3.37,6.61,6.61,0,0,0,2.64.57,6.86,6.86,0,0,0,6.77-7.1A9,9,0,0,0,56.9,42.7h4.44a2,2,0,0,0,2-2V11A2,2,0,0,0,62.52,9.41ZM52.56,50c-2.61,1.14-4.68-2.22-4.77-2.36a.94.94,0,0,0-.12-.18l-8-10.53a2,2,0,1,0-3.19,2.41l7.89,10.45a9.72,9.72,0,0,0,.62.89c.17,1.48.05,2.37-1,3-2.24,1.47-3.85-.55-4.32-1.25l-9-12.9a2,2,0,1,0-3.28,2.3l8.07,11.52A2.33,2.33,0,0,1,34.29,55c-2.18,1.09-3.37.22-3.65,0L21.7,42.13a2,2,0,1,0-3.28,2.3L25.68,54.8a3.82,3.82,0,0,1-1.55,1.43c-2.15,1.2-3.25.05-3.6-.47l-.06-.09L13,45.07c-.56-.9-4.1-6.37-8.43-6.37H4V13H9.74a17,17,0,0,0,6.32-1.48A30.85,30.85,0,0,1,25.53,9.3a52.42,52.42,0,0,1-6.31,4.95c-2.17,1.49-3.74,2.56-3.74,4.52a7,7,0,0,0,3.07,6.07c2.82,1.78,6.93,1.41,12.2-1.09a34.76,34.76,0,0,0,5.66-3.38l16.87,24.1a5.42,5.42,0,0,1,.95,2.68A2.8,2.8,0,0,1,52.56,50ZM59.34,38.7H54.13L38.47,16.33a2,2,0,0,0-3-.32A29,29,0,0,1,29,20.14c-3.79,1.79-6.83,2.27-8.35,1.31A2.94,2.94,0,0,1,19.49,19a17.61,17.61,0,0,1,2-1.48,53.32,53.32,0,0,0,8.16-6.66c1.17-1.17,2.13-2.16,3-3C35.92,4.44,36.41,4,38.12,4h3.81c5.47,0,6.73.85,9.77,2.89l.66.44c3.76,2.51,5.92,4,7,4.74Z"/></g></g></svg>