<svg xmlns="http://www.w3.org/2000/svg" viewBox="0 0 62.87 62.87"><defs><style>.cls-1{fill:#00bfb3;}.cls-2{fill:#fff;}</style></defs><title>アセット 18</title><g id="レイヤー_2" data-name="レイヤー 2"><g id="yen_1"><path class="cls-1" d="M31.43,0A31.44,31.44,0,1,0,62.87,31.44,31.47,31.47,0,0,0,31.43,0Z"/><path class="cls-2" d="M42.74,17A2.37,2.37,0,0,0,38.48,16l-7,9.62-7-9.62a2.38,2.38,0,0,0-3.32-.51A2.39,2.39,0,0,0,20.13,17a2.36,2.36,0,0,0,.43,1.76l7.55,10.3H25a2.38,2.38,0,1,0,0,4.75h4V36.9H25a2.38,2.38,0,1,0,0,4.75h4v4.86a2.38,2.38,0,0,0,4.75,0V41.65h4a2.38,2.38,0,1,0,0-4.75h-4V33.81h4a2.38,2.38,0,1,0,0-4.75H34.76l7.55-10.3A2.36,2.36,0,0,0,42.74,17Z"/></g></g></svg>